<svg width="20" height="15" viewBox="0 0 20 15" fill="none" xmlns="http://www.w3.org/2000/svg">
<path fill-rule="evenodd" clip-rule="evenodd" d="M3 0.989075C1.34315 0.989075 0 2.33222 0 3.98908V11.7746C0 13.4315 1.34315 14.7746 3 14.7746H9V3.98907C9 2.33222 7.65685 0.989075 6 0.989075H3ZM3 2.99619C2.58579 2.99619 2.25 3.33197 2.25 3.74619C2.25 4.1604 2.58579 4.49619 3 4.49619H6C6.41421 4.49619 6.75 4.1604 6.75 3.74619C6.75 3.33197 6.41421 2.99619 6 2.99619H3ZM2.25 5.81402C2.25 5.39981 2.58579 5.06402 3 5.06402H6C6.41421 5.06402 6.75 5.39981 6.75 5.81402C6.75 6.22824 6.41421 6.56402 6 6.56402H3C2.58579 6.56402 2.25 6.22824 2.25 5.81402ZM17 5.12474H11V14.7746H17C18.6569 14.7746 20 13.4315 20 11.7746V8.12474C20 6.46789 18.6569 5.12474 17 5.12474ZM14 7.13186C13.5858 7.13186 13.25 7.46764 13.25 7.88186C13.25 8.29607 13.5858 8.63186 14 8.63186H17C17.4142 8.63186 17.75 8.29607 17.75 7.88186C17.75 7.46764 17.4142 7.13186 17 7.13186H14ZM13.25 9.94969C13.25 9.53548 13.5858 9.19969 14 9.19969H17C17.4142 9.19969 17.75 9.53548 17.75 9.94969C17.75 10.3639 17.4142 10.6997 17 10.6997H14C13.5858 10.6997 13.25 10.3639 13.25 9.94969Z" fill="#28303F"/>
</svg>
