<svg width="36" height="36" viewBox="0 0 36 36" fill="none" xmlns="http://www.w3.org/2000/svg">
<path d="M32.1429 0H3.85714C1.72768 0 0 1.72768 0 3.85714V32.1429C0 34.2723 1.72768 36 3.85714 36H32.1429C34.2723 36 36 34.2723 36 32.1429V3.85714C36 1.72768 34.2723 0 32.1429 0ZM29.5714 20.25C29.5714 20.7804 29.1375 21.2143 28.6071 21.2143H21.2143V28.6071C21.2143 29.1375 20.7804 29.5714 20.25 29.5714H15.75C15.2196 29.5714 14.7857 29.1375 14.7857 28.6071V21.2143H7.39286C6.8625 21.2143 6.42857 20.7804 6.42857 20.25V15.75C6.42857 15.2196 6.8625 14.7857 7.39286 14.7857H14.7857V7.39286C14.7857 6.8625 15.2196 6.42857 15.75 6.42857H20.25C20.7804 6.42857 21.2143 6.8625 21.2143 7.39286V14.7857H28.6071C29.1375 14.7857 29.5714 15.2196 29.5714 15.75V20.25Z" fill="#008080"/>
</svg>
