<svg width="15" height="15" viewBox="0 0 15 15" fill="none" xmlns="http://www.w3.org/2000/svg">
<path d="M13.3929 0H1.60714C0.719866 0 0 0.719866 0 1.60714V13.3929C0 14.2801 0.719866 15 1.60714 15H13.3929C14.2801 15 15 14.2801 15 13.3929V1.60714C15 0.719866 14.2801 0 13.3929 0ZM12.3214 8.4375C12.3214 8.65848 12.1406 8.83929 11.9196 8.83929H8.83929V11.9196C8.83929 12.1406 8.65848 12.3214 8.4375 12.3214H6.5625C6.34152 12.3214 6.16071 12.1406 6.16071 11.9196V8.83929H3.08036C2.85938 8.83929 2.67857 8.65848 2.67857 8.4375V6.5625C2.67857 6.34152 2.85938 6.16071 3.08036 6.16071H6.16071V3.08036C6.16071 2.85938 6.34152 2.67857 6.5625 2.67857H8.4375C8.65848 2.67857 8.83929 2.85938 8.83929 3.08036V6.16071H11.9196C12.1406 6.16071 12.3214 6.34152 12.3214 6.5625V8.4375Z" fill="white"/>
</svg>
